<?xml version="1.0" encoding="utf-8"?>
<!-- Generator: Adobe Illustrator 24.2.1, SVG Export Plug-In . SVG Version: 6.00 Build 0)  -->
<svg version="1.1" id="Layer_1" xmlns="http://www.w3.org/2000/svg" xmlns:xlink="http://www.w3.org/1999/xlink" x="0px" y="0px"
	 viewBox="0 0 43.6 31.3" style="enable-background:new 0 0 43.6 31.3;" xml:space="preserve">
<style type="text/css">
	.st0{fill:#AFA39E;}
</style>
<path class="st0" d="M29.9,2.3c1.9,1.2,3.7,2.5,5.4,4c1.9,1.6,3.5,3.2,5.3,4.8c1.1,0.9,2.1,2,2.5,3.2c1.1,2.6,0.2,5.6-0.9,8.1
	c-1.3,2.7-3,5.4-5.5,7c-4.1,2.4-9.1,1.4-13.8,1.7c-1.8,0.1-3.7,0.3-5.6,0c-4-0.5-7.4-3.1-10.6-5.6c-1.4-1.1-2.7-2.2-4.1-3.2
	c-0.5-0.4-1.1-0.8-1.5-1.5c-0.3-0.6-0.6-1.4-0.8-2.1C-0.5,13.3,2.1,7.4,6.6,4.2C12.8-0.3,23.2-1.6,29.9,2.3z"/>
</svg>
